<svg xmlns="http://www.w3.org/2000/svg" xmlns:xlink="http://www.w3.org/1999/xlink" width="203.433" height="60.669" viewBox="0 0 203.433 60.669">
  <defs>
    <clipPath id="clip-path">
      <path id="Path_148" data-name="Path 148" d="M71.9,88.431c.083-.044.162-.1.243-.144.695-.386,1.565-.776,2.235-1.216l.269.1c.668.466,1.356.911,2.073,1.315a26.421,26.421,0,0,0,12.985,3.2,34.6,34.6,0,0,0,3.655-.2c-.221.233-.44.469-.673.69a26.7,26.7,0,0,1-36.867,0c-.214-.209-.423-.431-.63-.646a35.052,35.052,0,0,0,3.533.194A26.445,26.445,0,0,0,71.9,88.431M54.774,85.344a.763.763,0,0,1,.04-.09c-.029-.005-.057-.015-.083-.017a20.9,20.9,0,0,1,8.852-10.606c.356-.2.721-.388,1.091-.564a27.741,27.741,0,0,0,2.2,4.4.034.034,0,0,1,.007.01.073.073,0,0,1,.007.016v0a28.564,28.564,0,0,0,2.932,4.235c-.28.138-.6.3-.732.378a20.631,20.631,0,0,1-10.3,2.537,30.342,30.342,0,0,1-4.016-.295m24.753-2.1c-.278-.157-.537-.335-.8-.5a30.749,30.749,0,0,0,5.094-8.687c.383.181.761.371,1.134.578,3.985,2.231,6.97,5.834,9.022,10.761a30.039,30.039,0,0,1-4.264.324,20.638,20.638,0,0,1-10.183-2.471M71.9,75.413a27.578,27.578,0,0,1-1.393-2.929,29.638,29.638,0,0,1,4.266-.325c.7,0,1.379.026,2.047.08.391.038.795.1,1.192.16a26.969,26.969,0,0,1-1.936,3.859c-.54.823-1.12,1.637-1.726,2.454a27.893,27.893,0,0,1-2.45-3.3M68.844,65.7v0l-.007-.26c0-4.335,1.7-8.644,5.074-12.87a27.188,27.188,0,0,1,2.642,3.477l.021.038c.14.219.266.442.395.668A20.766,20.766,0,0,1,78.359,59.7c.033.1.066.193.1.288.066.188.133.375.195.564a18.556,18.556,0,0,1,.83,4.98c.007.188,0,.369,0,.554-.009.16-.018.319-.028.476-.7-.112-1.406-.207-2.122-.266h-.009a33.874,33.874,0,0,0-3.408-.174,29.408,29.408,0,0,0-5.02.428c-.019-.283-.052-.564-.057-.846m-20.5,10.844c-.049-.632-.078-1.269-.078-1.911a24.5,24.5,0,0,1,7.562-17.645,26.163,26.163,0,0,1,12.43-6.709A25.893,25.893,0,0,0,62.99,65.442v.007l0,.356v0c.012.7.067,1.6.143,2.3l0,0-.074.032c-.057.023-.117.044-.176.068l-.076.05a24,24,0,0,0-2.2,1.087A26.642,26.642,0,0,0,49.494,82.139a24.318,24.318,0,0,1-1.153-5.6m39.35-7.317a23.969,23.969,0,0,0-2.253-1.094l-.176-.122c.052-.651.079-1.559.079-2.187v-.366a23.408,23.408,0,0,0-1.617-8.135,29.1,29.1,0,0,0-4-7.141,26.16,26.16,0,0,1,12.908,6.806,25,25,0,0,1,5.938,8.936A24.244,24.244,0,0,1,98.917,82a26.643,26.643,0,0,0-11.226-12.77m-14.279-25a31.481,31.481,0,0,0-21.123,8.816,29.832,29.832,0,0,0,0,43.028,31.715,31.715,0,0,0,43.875,0,30.432,30.432,0,0,0,3.784-4.454c.392-.559.768-1.13,1.12-1.713l.447-.756c.24-.423.464-.861.687-1.3a.061.061,0,0,0-.021.012,29.476,29.476,0,0,0,1.175-23.817A30.12,30.12,0,0,0,96.1,53.029a31.458,31.458,0,0,0-21.856-8.818H74.2l.007,0Z" transform="translate(-43.116 -44.209)" fill="#fff"/>
    </clipPath>
  </defs>
  <g id="Group_194" data-name="Group 194" transform="translate(-240.475 -60.353)">
    <g id="Group_132" data-name="Group 132" transform="translate(240.475 60.353)">
      <path id="Path_135" data-name="Path 135" d="M171.588,111.18h-.846v1.862h-1.108v.79h1.108v3.979l0,.14a1.689,1.689,0,0,0,.147.754,1.23,1.23,0,0,0,.469.521,1.518,1.518,0,0,0,.649.2h0c.121.009.247.016.376.016.1,0,.207,0,.311-.01l.19-.014v-.782l-.209.007-.169,0a2.6,2.6,0,0,1-.355-.019.761.761,0,0,1-.324-.1.4.4,0,0,1-.169-.216,1.385,1.385,0,0,1-.069-.5v-3.979h1.306v-.79h-1.306Z" transform="translate(-92.548 -70.375)" fill="#fff"/>
      <path id="Path_136" data-name="Path 136" d="M191.846,115.038a2.562,2.562,0,0,0-.911-.751,2.879,2.879,0,0,0-1.3-.278,2.613,2.613,0,0,0-1.275.3,2.7,2.7,0,0,0-.9.785,3.3,3.3,0,0,0-.52,1.1,4.352,4.352,0,0,0-.155,1.166l0,.093,0,.076a3.923,3.923,0,0,0,.166,1.148,3.085,3.085,0,0,0,.537,1.035,2.525,2.525,0,0,0,.9.706,3.173,3.173,0,0,0,3.111-.34,2.748,2.748,0,0,0,.915-1.736l.038-.236h-.849l-.03.164a1.979,1.979,0,0,1-.659,1.194,1.926,1.926,0,0,1-1.284.423,1.81,1.81,0,0,1-.877-.2,1.873,1.873,0,0,1-.628-.536,2.359,2.359,0,0,1-.38-.794,3.214,3.214,0,0,1-.107-.759h4.818l.007-.193c0-.086.007-.169.007-.255a4.176,4.176,0,0,0-.124-1.027,3.075,3.075,0,0,0-.5-1.092m-.378,1.137a2.828,2.828,0,0,1,.131.64h-3.931a3.015,3.015,0,0,1,.152-.606,2.592,2.592,0,0,1,.409-.723,2.034,2.034,0,0,1,.609-.5,1.664,1.664,0,0,1,.8-.186,1.777,1.777,0,0,1,.823.183,1.963,1.963,0,0,1,.616.485,2.16,2.16,0,0,1,.395.709" transform="translate(-99.249 -71.48)" fill="#fff"/>
      <path id="Path_137" data-name="Path 137" d="M214.06,118.026l-.026.174a2.228,2.228,0,0,1-.211.69,1.836,1.836,0,0,1-.4.528,1.914,1.914,0,0,1-.566.347,1.893,1.893,0,0,1-.7.126,2.093,2.093,0,0,1-.925-.19,1.8,1.8,0,0,1-.65-.531,2.333,2.333,0,0,1-.4-.82,4.031,4.031,0,0,1-.13-1.063,3.109,3.109,0,0,1,.14-.937,2.589,2.589,0,0,1,.411-.8,1.969,1.969,0,0,1,.656-.55,1.929,1.929,0,0,1,.894-.2,2.458,2.458,0,0,1,.706.1,1.755,1.755,0,0,1,.559.271,1.38,1.38,0,0,1,.381.437,1.519,1.519,0,0,1,.18.618l.015.183h.851l-.021-.221a2.383,2.383,0,0,0-.281-.965,2.142,2.142,0,0,0-.6-.681,2.559,2.559,0,0,0-.821-.4,3.449,3.449,0,0,0-.97-.131,2.892,2.892,0,0,0-1.263.266,2.711,2.711,0,0,0-.93.716,3.117,3.117,0,0,0-.568,1.046,4.07,4.07,0,0,0-.191,1.251,4.769,4.769,0,0,0,.165,1.258,3.209,3.209,0,0,0,.523,1.087,2.6,2.6,0,0,0,.921.763,2.936,2.936,0,0,0,1.344.286,2.9,2.9,0,0,0,.982-.165,2.561,2.561,0,0,0,.82-.473,2.685,2.685,0,0,0,.607-.763,2.948,2.948,0,0,0,.319-1.025l.03-.228h-.849Z" transform="translate(-108.006 -71.48)" fill="#fff"/>
      <path id="Path_138" data-name="Path 138" d="M236.191,114.232l-.2.043.2-.043a2.4,2.4,0,0,0-.209-.578,1.848,1.848,0,0,0-.414-.531,1.917,1.917,0,0,0-.668-.38,2.963,2.963,0,0,0-.956-.138,2.8,2.8,0,0,0-.742.1,2.4,2.4,0,0,0-1.222.79v-3.079h-.847v8.72h.847V115.7a3.108,3.108,0,0,1,.135-.946,2.071,2.071,0,0,1,.388-.723,1.773,1.773,0,0,1,.612-.466,1.944,1.944,0,0,1,.818-.166,1.572,1.572,0,0,1,.84.188,1.307,1.307,0,0,1,.445.457,1.477,1.477,0,0,1,.178.566,4.966,4.966,0,0,1,.036.542v3.988h.846v-3.9c0-.129,0-.278-.012-.447a3.3,3.3,0,0,0-.074-.551" transform="translate(-116.576 -70.076)" fill="#fff"/>
      <path id="Path_139" data-name="Path 139" d="M257.682,115.636a2.379,2.379,0,0,0-.21-.578,1.836,1.836,0,0,0-.411-.531,1.963,1.963,0,0,0-.668-.38,2.989,2.989,0,0,0-.958-.138,2.8,2.8,0,0,0-.742.1,2.454,2.454,0,0,0-.68.3,2.493,2.493,0,0,0-.542.485v-.749h-.847v6.39h.847V117.1a3.107,3.107,0,0,1,.135-.946,2.07,2.07,0,0,1,.387-.723,1.776,1.776,0,0,1,.611-.466,1.948,1.948,0,0,1,.818-.166,1.572,1.572,0,0,1,.84.188,1.307,1.307,0,0,1,.445.457,1.478,1.478,0,0,1,.178.566,4.979,4.979,0,0,1,.036.542v3.988h.846v-3.9c0-.13,0-.278-.012-.447a3.3,3.3,0,0,0-.074-.551" transform="translate(-124.973 -71.481)" fill="#fff"/>
      <path id="Path_140" data-name="Path 140" d="M279.072,116.14l.193-.065a3.211,3.211,0,0,0-.564-1.06,2.7,2.7,0,0,0-.932-.735,3.086,3.086,0,0,0-2.53,0,2.719,2.719,0,0,0-.93.735,3.211,3.211,0,0,0-.564,1.06,4.119,4.119,0,0,0-.191,1.268,4.164,4.164,0,0,0,.191,1.275,3.1,3.1,0,0,0,.565,1.063,2.729,2.729,0,0,0,.93.728,3.086,3.086,0,0,0,2.53,0,2.791,2.791,0,0,0,.928-.728,3.1,3.1,0,0,0,.565-1.063,4.164,4.164,0,0,0,.191-1.275,4.092,4.092,0,0,0-.191-1.266Zm-4.528,2.176a3.382,3.382,0,0,1,0-1.943,2.607,2.607,0,0,1,.409-.815,2,2,0,0,1,.657-.557,2.081,2.081,0,0,1,1.79,0,2,2,0,0,1,.657.557,2.607,2.607,0,0,1,.409.815,3.381,3.381,0,0,1,0,1.943,2.569,2.569,0,0,1-.411.816,1.937,1.937,0,0,1-.654.554,2.059,2.059,0,0,1-1.79,0,1.969,1.969,0,0,1-.657-.554,2.617,2.617,0,0,1-.409-.816" transform="translate(-133.151 -71.481)" fill="#fff"/>
      <path id="Path_141" data-name="Path 141" d="M296.839,110.415v8.72h.846v-8.72h-.846Z" transform="translate(-142.248 -70.077)" fill="#fff"/>
      <path id="Path_142" data-name="Path 142" d="M316.407,116.14l.193-.065a3.211,3.211,0,0,0-.564-1.06,2.7,2.7,0,0,0-.932-.735,3.086,3.086,0,0,0-2.53,0,2.719,2.719,0,0,0-.93.735,3.211,3.211,0,0,0-.564,1.06,4.119,4.119,0,0,0-.191,1.268,4.164,4.164,0,0,0,.191,1.275,3.1,3.1,0,0,0,.565,1.063,2.752,2.752,0,0,0,.93.728,3.086,3.086,0,0,0,2.53,0,2.791,2.791,0,0,0,.928-.728,3.1,3.1,0,0,0,.565-1.063,4.165,4.165,0,0,0,.191-1.275,4.093,4.093,0,0,0-.191-1.266Zm-4.528,2.176a3.38,3.38,0,0,1,0-1.943,2.56,2.56,0,0,1,.411-.815,1.967,1.967,0,0,1,.654-.557,2.081,2.081,0,0,1,1.79,0,2,2,0,0,1,.657.557,2.607,2.607,0,0,1,.409.815,3.381,3.381,0,0,1,0,1.943,2.569,2.569,0,0,1-.411.816,1.937,1.937,0,0,1-.654.554,2.059,2.059,0,0,1-1.79,0,1.937,1.937,0,0,1-.654-.554,2.57,2.57,0,0,1-.411-.816" transform="translate(-147.738 -71.481)" fill="#fff"/>
      <path id="Path_143" data-name="Path 143" d="M337.416,114.148v.746a.12.12,0,0,1-.016-.024,2.391,2.391,0,0,0-.554-.471,2.579,2.579,0,0,0-.675-.29,2.8,2.8,0,0,0-.742-.1,2.666,2.666,0,0,0-1.2.261,2.559,2.559,0,0,0-.877.695,3.026,3.026,0,0,0-.53,1,3.93,3.93,0,0,0-.178,1.191,4.291,4.291,0,0,0,.166,1.22,2.856,2.856,0,0,0,.514,1.008,2.4,2.4,0,0,0,.875.685,2.881,2.881,0,0,0,1.232.247,2.583,2.583,0,0,0,1.422-.383,2.4,2.4,0,0,0,.566-.519v.711c0,.059,0,.157-.012.283a1.842,1.842,0,0,1-.069.383,2.115,2.115,0,0,1-.175.437,1.338,1.338,0,0,1-.319.39,1.675,1.675,0,0,1-.537.295,2.5,2.5,0,0,1-.816.116,2.706,2.706,0,0,1-.652-.076,1.6,1.6,0,0,1-.52-.233,1.242,1.242,0,0,1-.366-.395,1.374,1.374,0,0,1-.169-.592l-.019-.183h-.837l.01.212a2.237,2.237,0,0,0,.238.965,1.832,1.832,0,0,0,.564.64,2.275,2.275,0,0,0,.8.347,4.126,4.126,0,0,0,.939.1l.174,0a3.113,3.113,0,0,0,.985-.143,2.356,2.356,0,0,0,.8-.44,2.1,2.1,0,0,0,.488-.621,2.966,2.966,0,0,0,.245-.652,3.187,3.187,0,0,0,.085-.578c.007-.164.012-.285.012-.371v-5.874h-.847Zm-3.429,4.7a2.143,2.143,0,0,1-.371-.751,3.373,3.373,0,0,1-.129-.94,3.189,3.189,0,0,1,.126-.882,2.484,2.484,0,0,1,.366-.759,1.8,1.8,0,0,1,.6-.523,1.764,1.764,0,0,1,.851-.2,1.844,1.844,0,0,1,.863.188,1.768,1.768,0,0,1,.614.509,2.2,2.2,0,0,1,.374.754,3.369,3.369,0,0,1,0,1.827,2.327,2.327,0,0,1-.374.756,1.8,1.8,0,0,1-.614.511,1.844,1.844,0,0,1-.863.188,1.764,1.764,0,0,1-1.441-.68" transform="translate(-156.236 -71.48)" fill="#fff"/>
      <path id="Path_144" data-name="Path 144" d="M354.063,114.238v6.39h.846v-6.39h-.846Z" transform="translate(-164.606 -71.57)" fill="#fff"/>
      <path id="Path_145" data-name="Path 145" d="M354.713,112.528h.2V111H354.1v1.524h.616Z" transform="translate(-164.62 -70.306)" fill="#fff"/>
      <path id="Path_146" data-name="Path 146" d="M372.776,119.707a1.786,1.786,0,0,1-.292.031.2.2,0,0,1-.107-.019l-.05-.074a.642.642,0,0,1-.031-.179c0-.081-.007-.164-.007-.247v-3.45a1.663,1.663,0,0,0-.209-.871,1.529,1.529,0,0,0-.547-.549,2.277,2.277,0,0,0-.735-.266,4.284,4.284,0,0,0-.806-.074,2.693,2.693,0,0,0-1.778.542,2.159,2.159,0,0,0-.706,1.629l-.01.214h.844l.012-.193a1.374,1.374,0,0,1,.469-1.041,1.758,1.758,0,0,1,1.17-.362,1.855,1.855,0,0,1,.756.129,1.273,1.273,0,0,1,.437.295.97.97,0,0,1,.212.324.834.834,0,0,1,.057.226,2.759,2.759,0,0,1-.043.547.345.345,0,0,1-.159.224,1.354,1.354,0,0,1-.528.164c-.266.043-.649.078-1.141.109h-.007a7.2,7.2,0,0,0-.785.121,2.5,2.5,0,0,0-.773.3,1.722,1.722,0,0,0-.592.592,1.81,1.81,0,0,0-.236.963,2.114,2.114,0,0,0,.172.885,1.549,1.549,0,0,0,.49.594,2,2,0,0,0,.713.319,3.6,3.6,0,0,0,.832.093,3.119,3.119,0,0,0,.849-.111,2.576,2.576,0,0,0,.7-.319,2.285,2.285,0,0,0,.526-.459.466.466,0,0,0,0,.055.9.9,0,0,0,.143.352.745.745,0,0,0,.324.255,1.239,1.239,0,0,0,.506.088,1.528,1.528,0,0,0,.207-.014,1.575,1.575,0,0,0,.2-.038l.152-.04v-.78Zm-3.27-2.1c.214-.029.426-.052.64-.069s.43-.036.63-.057a2.962,2.962,0,0,0,.571-.121.923.923,0,0,0,.1-.043v.742a3.272,3.272,0,0,1-.06.411,1.756,1.756,0,0,1-.269.614,1.948,1.948,0,0,1-.611.568,2.1,2.1,0,0,1-1.094.243,1.444,1.444,0,0,1-1.042-.321,1.039,1.039,0,0,1-.328-.78.922.922,0,0,1,.342-.821,2.359,2.359,0,0,1,1.12-.366Z" transform="translate(-169.735 -71.481)" fill="#fff"/>
      <path id="Path_147" data-name="Path 147" d="M176.661,67.1h-7.467V62.443h20.941V67.1H182.6V88.141h-5.938Zm16.6,21.044h18.925V83.522H199.2V77.515h11.529V72.9H199.2V67.062h12.675V62.443H193.26Zm34.1-13.4,9.693-12.3h-6.6l-8.138,10.418h-.3V62.443h-5.938v25.7h5.938V77.48h.687l8.38,10.661h6.6m21.548-2.987q3.178-3.332,3.177-9.826,0-6.528-3.177-9.881t-9.22-3.351q-6.079,0-9.236,3.334t-3.16,9.9q0,6.492,3.16,9.826t9.236,3.334q6.043,0,9.22-3.334M247.054,83.3a4.138,4.138,0,0,1-1.962-1.425A6.532,6.532,0,0,1,244,79.285a18.864,18.864,0,0,1-.347-3.957,19.227,19.227,0,0,1,.347-3.96,6.424,6.424,0,0,1,1.111-2.621,4.372,4.372,0,0,1,1.978-1.443,8.433,8.433,0,0,1,2.918-.45,8.266,8.266,0,0,1,2.9.45,4.347,4.347,0,0,1,1.962,1.46A6.764,6.764,0,0,1,256,71.385a18.269,18.269,0,0,1,.364,3.943,18.907,18.907,0,0,1-.347,3.957,6.532,6.532,0,0,1-1.094,2.588,4.141,4.141,0,0,1-1.962,1.425,10.229,10.229,0,0,1-5.9,0m19.2,4.844H271.5V69.076h.278l2.43,7.084L278.585,87.1h4.861l4.411-10.939,2.394-7.084h.278V88.141h5.28v-25.7h-8.093l-4.93,12.57-1.634,5.315h-.242l-1.667-5.315-4.9-12.57h-8.09Z" transform="translate(-92.376 -51.198)" fill="#fff"/>
      <g id="Group_131" data-name="Group 131">
        <g id="Group_130" data-name="Group 130" clip-path="url(#clip-path)">
          <rect id="Rectangle_4" data-name="Rectangle 4" width="83.643" height="84.206" transform="matrix(0.5, -0.866, 0.866, 0.5, -26.27, 45.502)" fill="#fff"/>
        </g>
      </g>
    </g>
  </g>
</svg>
